<svg enable-background="new 0 0 210.417 255.75" height="256" viewBox="0 0 210.417 255.75" width="211" xmlns="http://www.w3.org/2000/svg"><path d="m64.866 135.477c-.762 0-1.515-.347-2.005-1.004-.826-1.106-.599-2.673.508-3.499l43.964-32.819c1.106-.826 2.674-.599 3.499.508.826 1.106.599 2.673-.508 3.499l-43.964 32.818c-.449.335-.974.497-1.494.497z" fill="#112c41"/><path d="m53.099 69.122 73.446 185.627s-43.13-49.349-60.804-94.875c-18.093-46.607-27.095-89.982-27.095-89.982z" fill="#fcaa51"/><path d="m126.546 255.75c-.281 0-.558-.118-.753-.342-.433-.495-43.449-50.004-60.983-95.171-17.917-46.15-27.052-89.707-27.142-90.141-.06-.286.009-.583.187-.813.178-.231.448-.373.739-.388l14.454-.77c.428-.024.825.23.983.631l73.446 185.627c.179.452.006.968-.409 1.222-.164.097-.344.145-.522.145zm-86.676-184.921c1.561 7.156 10.562 46.85 26.803 88.685 14.279 36.782 45.642 76.536 56.686 89.903l-70.925-179.258z" fill="#112c41"/><path d="m52.333 69.695 157.084 123.192s-35.05-55.381-73.672-85.27c-39.539-30.598-78.565-51.56-78.565-51.56z" fill="#fcaa51"/><path d="m209.417 193.887c-.217 0-.436-.071-.617-.213l-157.085-123.193c-.338-.266-.469-.717-.325-1.122l4.848-13.638c.098-.275.311-.493.583-.598s.577-.086.833.052c.391.21 39.551 21.352 78.703 51.65 38.318 29.653 73.554 84.971 73.905 85.526.26.411.187.95-.175 1.276-.189.173-.429.26-.67.26zm-155.901-124.535 151.693 118.964c-9.674-14.388-38.871-55.759-70.075-79.907-35.492-27.466-70.987-47.381-77.404-50.913z" fill="#112c41"/><path d="m30.526 34.208-3.41 2.546c-2.315 1.728-5.593 1.253-7.322-1.063l-17.754-23.784c-1.729-2.315-1.253-5.593 1.062-7.322l3.41-2.546c2.315-1.728 5.593-1.253 7.322 1.063l17.754 23.784c1.73 2.316 1.254 5.594-1.062 7.322z" fill="#ff9522"/><path d="m23.994 38.791c-1.901 0-3.779-.864-5.001-2.501l-17.755-23.785c-2.055-2.753-1.487-6.665 1.266-8.721l3.411-2.546c1.334-.996 2.978-1.412 4.623-1.173 1.647.239 3.103 1.105 4.098 2.439l17.755 23.784c2.055 2.754 1.487 6.667-1.266 8.722l-3.411 2.546c-1.116.833-2.423 1.235-3.72 1.235zm-14.361-36.791c-.905 0-1.783.29-2.522.841l-3.411 2.546c-1.87 1.396-2.255 4.053-.859 5.922l17.754 23.784c1.396 1.869 4.052 2.255 5.922.86l3.411-2.546c1.87-1.396 2.255-4.053.86-5.923l-17.755-23.783c-.676-.906-1.665-1.494-2.783-1.657-.206-.03-.412-.044-.617-.044zm20.894 32.209h.01z" fill="#112c41"/><circle cx="40.428" cy="51.029" fill="#fcaa51" r="27.431"/><path d="m40.488 79.466c-1.375 0-2.759-.1-4.144-.3-7.516-1.091-14.156-5.043-18.699-11.129-4.543-6.085-6.444-13.576-5.353-21.091 1.091-7.516 5.043-14.157 11.129-18.699 12.562-9.377 30.412-6.787 39.791 5.776 9.378 12.562 6.787 30.413-5.776 39.791-4.965 3.704-10.864 5.652-16.948 5.652zm-.093-54.858c-5.5 0-11.042 1.706-15.778 5.241-5.658 4.223-9.332 10.397-10.346 17.384s.753 13.95 4.977 19.608 10.397 9.332 17.384 10.346c6.988 1.014 13.951-.753 19.608-4.977 11.679-8.718 14.088-25.312 5.37-36.992-5.185-6.943-13.152-10.61-21.215-10.61z" fill="#112c41"/><circle cx="40.428" cy="51.029" fill="#ffe993" r="11.374"/><g fill="#112c41"><path d="m40.443 63.399c-3.775 0-7.504-1.717-9.931-4.967-4.081-5.468-2.953-13.237 2.514-17.318 2.648-1.977 5.91-2.804 9.179-2.33 3.271.475 6.161 2.195 8.138 4.844 4.082 5.467 2.954 13.236-2.514 17.318-2.216 1.654-4.812 2.452-7.386 2.453zm-.037-22.746c-2.22 0-4.372.711-6.184 2.063-4.583 3.422-5.529 9.935-2.108 14.519s9.936 5.528 14.519 2.107c4.584-3.422 5.529-9.935 2.107-14.519-1.658-2.22-4.081-3.663-6.823-4.061-.504-.072-1.01-.109-1.511-.109z"/><ellipse cx="56.196" cy="132.219" rx="3.871" ry="9.333" transform="matrix(.9662 -.2577 .2577 .9662 -32.1769 18.949)"/><path d="m58.169 142.293c-1.222 0-2.516-.824-3.711-2.384-1.239-1.617-2.293-3.902-2.969-6.435-1.291-4.84-1.014-10.423 2.043-11.239 3.054-.814 6.078 3.889 7.369 8.729.676 2.533.899 5.04.63 7.059-.309 2.318-1.259 3.803-2.674 4.181-.225.059-.455.089-.688.089zm-3.939-18.148c-.064 0-.125.008-.182.023-1.131.302-1.938 3.876-.626 8.791.609 2.285 1.541 4.321 2.624 5.734.859 1.122 1.737 1.725 2.297 1.578.558-.148 1.021-1.111 1.207-2.512.235-1.764.029-3.994-.581-6.279-1.244-4.667-3.542-7.335-4.739-7.335z"/><ellipse cx="111.955" cy="90.595" rx="3.871" ry="9.333" transform="matrix(.5218 -.8531 .8531 .5218 -23.7471 138.8282)"/><path d="m117.407 97.479c-.438 0-.907-.039-1.406-.117-2.012-.316-4.352-1.244-6.588-2.611-2.236-1.368-4.127-3.028-5.325-4.675-1.375-1.892-1.712-3.622-.948-4.872s2.458-1.737 4.768-1.375c2.012.316 4.352 1.244 6.588 2.611 2.236 1.368 4.127 3.028 5.325 4.676 1.375 1.892 1.712 3.622.948 4.871-.599.98-1.77 1.492-3.362 1.492zm-10.924-11.769c-.828 0-1.422.187-1.636.537-.301.493.028 1.509.859 2.652 1.047 1.439 2.734 2.912 4.751 4.146 2.017 1.234 4.096 2.065 5.854 2.341 1.396.219 2.451.05 2.751-.442.301-.493-.028-1.509-.859-2.652-1.046-1.439-2.734-2.912-4.751-4.146s-4.096-2.065-5.854-2.341c-.404-.063-.779-.095-1.115-.095z"/></g></svg>