<svg enable-background="new 0 0 96.993 92.842" height="93" viewBox="0 0 96.993 92.842" width="97" xmlns="http://www.w3.org/2000/svg"><g fill="#1d0333"><path d="m91.556 92.842c-.155 0-.312-.036-.459-.112-.49-.254-.682-.857-.428-1.348 5.581-10.772 4.541-18.788 3.424-22.608-2.833-9.693-12.517-17.854-25.906-21.83-2.422-.72-4.841-1.26-7.207-1.626-.54 1.83-1.216 3.623-2.026 5.353-3.045 6.5-7.583 11.089-12.451 12.591-5.377 1.654-13.003.242-14.772-4.069-1.606-3.909 2.095-9.002 4.974-11.471 4.794-4.112 13.349-5.732 22.805-4.613 1.753-7.113 1.38-14.64-1.194-20.808-3.248-7.781-9.876-13.695-19.7-17.576-16.956-6.695-32.71.72-37.135 3.154-.482.267-1.093.09-1.357-.395-.267-.483-.09-1.092.395-1.357 4.616-2.539 21.063-10.28 38.827-3.264 10.348 4.088 17.35 10.368 20.814 18.668 2.709 6.491 3.13 14.386 1.338 21.851 2.391.375 4.825.922 7.259 1.645 14.043 4.17 24.232 12.838 27.256 23.186 1.201 4.106 2.334 12.697-3.568 24.089-.178.344-.526.54-.889.54zm-37.836-48.1c-6.59 0-12.258 1.532-15.714 4.497-2.447 2.099-5.545 6.471-4.427 9.193 1.191 2.899 7.531 4.398 12.333 2.917 4.331-1.335 8.424-5.537 11.23-11.527.724-1.545 1.334-3.144 1.831-4.772-1.797-.205-3.555-.308-5.253-.308z"/><path d="m92.184 17.037-5.798-2.225-5.12 3.515.324-6.202-4.925-3.783 5.998-1.608 2.076-5.854 3.384 5.208 6.208.166-3.908 4.827z"/></g></svg>