<svg height="259" viewBox="0 0 186.126 258.432" width="187" xmlns="http://www.w3.org/2000/svg"><path d="m130.278 65.055a60.4 60.4 0 0 0 5.6-6.9 71.887 71.887 0 0 0 3.9-6.8 3.662 3.662 0 0 0 -3.1-5.3 66.232 66.232 0 0 0 -8.7.2 54.711 54.711 0 0 0 -7.9 1.1 3.761 3.761 0 0 1 -4.1-1.9 44.92 44.92 0 0 0 -4.8-7.4 64.113 64.113 0 0 0 -5.3-5.9 3.711 3.711 0 0 0 -6 1.2 59.866 59.866 0 0 0 -2.5 7.5 43.579 43.579 0 0 0 -1.4 8.8 3.622 3.622 0 0 1 -3 3.4 75.271 75.271 0 0 0 -7.7 2.2 78.5 78.5 0 0 0 -8.1 3.3 3.668 3.668 0 0 0 -.7 6.1 68.834 68.834 0 0 0 6.3 4.7 61.135 61.135 0 0 0 7.9 4.1 3.635 3.635 0 0 1 2.3 3.9 75.09 75.09 0 0 0 -.3 8 51.806 51.806 0 0 0 .7 8.7 3.635 3.635 0 0 0 5.5 2.6 56.421 56.421 0 0 0 6.5-4.6 46.44 46.44 0 0 0 6.3-6.2 3.711 3.711 0 0 1 4.4-1 71.392 71.392 0 0 0 7.5 2.8 50.784 50.784 0 0 0 8.5 2 3.674 3.674 0 0 0 4.1-4.6 64.528 64.528 0 0 0 -2.9-8.3 70.957 70.957 0 0 0 -3.5-7.2 3.76 3.76 0 0 1 .5-4.5z" fill="#ffb400"/><path d="m60.578 120.455a39.784 39.784 0 0 0 .6-6.8 56.8 56.8 0 0 0 -.4-6.1 2.841 2.841 0 0 0 -4.2-2.1 35.778 35.778 0 0 0 -5.5 3.9c-2.2 1.8-3.7 3.2-4.6 4.1a3.014 3.014 0 0 1 -3.5.5 35.781 35.781 0 0 0 -6.3-2.7 56.9 56.9 0 0 0 -5.9-1.5 2.807 2.807 0 0 0 -3.3 3.3 52.5 52.5 0 0 0 1.6 5.9 37.78 37.78 0 0 0 2.8 6.2 2.905 2.905 0 0 1 -.5 3.5c-.9 1-2.3 2.5-4 4.7-1.6 2.1-2.8 4-3.8 5.6a2.8 2.8 0 0 0 2.1 4.2 56.579 56.579 0 0 0 6.1.3 37.339 37.339 0 0 0 6.8-.8 2.954 2.954 0 0 1 3.2 1.5 52.331 52.331 0 0 0 3.2 5.3 37.653 37.653 0 0 0 4.2 5.3 2.781 2.781 0 0 0 4.6-.7 45.449 45.449 0 0 0 2.2-5.7 38.338 38.338 0 0 0 1.4-6.7 2.866 2.866 0 0 1 2.4-2.5 46.005 46.005 0 0 0 6-1.4 54.316 54.316 0 0 0 6.3-2.3 2.822 2.822 0 0 0 .6-4.7 62.12 62.12 0 0 0 -5.4-4.1 47.157 47.157 0 0 0 -5.3-3.1 2.827 2.827 0 0 1 -1.4-3.1z" fill="#f04e23"/><path d="m177.178 186.455a37.495 37.495 0 0 0 4.6-2.5 37.831 37.831 0 0 0 3.6-2.9 2.173 2.173 0 0 0 -.5-3.6 41.34 41.34 0 0 0 -4.8-1.8 31.257 31.257 0 0 0 -4.6-1.1 2.23 2.23 0 0 1 -1.8-2 25.038 25.038 0 0 0 -1-5.1c-.5-1.6-1.1-3.1-1.6-4.4a2.135 2.135 0 0 0 -3.5-.6c-.9 1-2 2.2-3 3.5a35.338 35.338 0 0 0 -2.7 4.5 2.151 2.151 0 0 1 -2.4 1.2 31.781 31.781 0 0 0 -4.7-.5 43.051 43.051 0 0 0 -5.1 0 2.152 2.152 0 0 0 -1.7 3.2c.6 1.2 1.5 2.6 2.4 4a29.443 29.443 0 0 0 3.4 3.9 2.145 2.145 0 0 1 .4 2.6 41.923 41.923 0 0 0 -1.9 4.3c-.7 1.9-1.2 3.6-1.6 4.9a2.117 2.117 0 0 0 2.5 2.6 29.317 29.317 0 0 0 4.5-1.1 25.731 25.731 0 0 0 4.8-2 2.124 2.124 0 0 1 2.6.4 45.7 45.7 0 0 0 3.5 3.2 26.721 26.721 0 0 0 4.2 2.9 2.152 2.152 0 0 0 3.2-1.6 27.821 27.821 0 0 0 .2-5.2 40.477 40.477 0 0 0 -.3-4.7 2.195 2.195 0 0 1 1.3-2.1z" fill="#f04e23"/><g fill="#ffb400"><path d="m17.678 197.355a12.7 12.7 0 0 0 1.6-2.3c.4-.8.8-1.6 1.1-2.3a1.179 1.179 0 0 0 -1.1-1.6c-.7 0-1.7.1-2.8.2-1.2.2-2 .4-2.5.5a1.231 1.231 0 0 1 -1.3-.5 18.748 18.748 0 0 0 -1.7-2.3 13.6 13.6 0 0 0 -1.8-1.7 1.215 1.215 0 0 0 -1.9.5 19.148 19.148 0 0 0 -.9 5.2 1.172 1.172 0 0 1 -.9 1.1c-.5.2-1.3.4-2.4.9a19.664 19.664 0 0 0 -2.5 1.2 1.123 1.123 0 0 0 -.1 1.9c.6.4 1.3.9 2.1 1.4a16.516 16.516 0 0 0 2.6 1.1 1.3 1.3 0 0 1 .8 1.2c0 .6 0 1.4.1 2.5a18.777 18.777 0 0 0 .4 2.8 1.154 1.154 0 0 0 1.8.7 23.271 23.271 0 0 0 2-1.6 16.289 16.289 0 0 0 1.9-2.1 1.237 1.237 0 0 1 1.4-.4c.5.2 1.3.4 2.4.7a17.578 17.578 0 0 0 2.7.5 1.132 1.132 0 0 0 1.2-1.5 16.516 16.516 0 0 0 -1.1-2.6 15.847 15.847 0 0 0 -1.3-2.2 1.283 1.283 0 0 1 .2-1.3z"/><path d="m46.578 12.955a23.562 23.562 0 0 0 2.4-1.4 15.955 15.955 0 0 0 1.9-1.6 1.176 1.176 0 0 0 -.3-1.9 25.578 25.578 0 0 0 -2.6-.9 10.8 10.8 0 0 0 -2.5-.5 1.285 1.285 0 0 1 -1-1 19.453 19.453 0 0 0 -.6-2.7c-.3-.8-.6-1.7-.9-2.3a1.192 1.192 0 0 0 -1.9-.3 11.648 11.648 0 0 0 -1.6 2 16.6 16.6 0 0 0 -1.4 2.5 1.146 1.146 0 0 1 -1.3.7 13.8 13.8 0 0 0 -2.5-.2 23.522 23.522 0 0 0 -2.8.1 1.171 1.171 0 0 0 -.9 1.7 19.1 19.1 0 0 0 1.4 2.1 22 22 0 0 0 1.9 2.1 1.238 1.238 0 0 1 .3 1.4c-.2.5-.6 1.3-1 2.4a19.528 19.528 0 0 0 -.8 2.7 1.224 1.224 0 0 0 1.4 1.4c.7-.1 1.6-.4 2.4-.6a12.9 12.9 0 0 0 2.6-1.2 1.075 1.075 0 0 1 1.4.2c.4.4 1 .9 1.9 1.7a8.955 8.955 0 0 0 2.3 1.5 1.171 1.171 0 0 0 1.7-.9 13.02 13.02 0 0 0 0-2.8 24.27 24.27 0 0 0 -.3-2.5c.1-1 .4-1.5.8-1.7z"/><path d="m93.778 251.655c-.3-9.4-.5-18.9-.5-28.3s0-18.9.1-28.3.3-18.9.5-28.3.5-18.9.9-28.3a.3.3 0 0 1 .6 0c.4 9.4.6 18.9.9 28.3.2 9.4.4 18.9.5 28.3s.2 18.9.1 28.3c0 9.4-.2 18.9-.5 28.3a1.216 1.216 0 0 1 -1.2 1.2c-.9-.1-1.4-.6-1.4-1.2z"/><path d="m74.278 257.855c-2.4-3.9-4.6-7.8-6.8-11.8s-4.2-8.1-6.2-12.1c-2-4.1-4-8.2-5.9-12.3s-3.8-8.3-5.6-12.5c-.1-.1 0-.3.1-.4a.192.192 0 0 1 .3.1c2.4 3.9 4.8 7.8 7.1 11.7s4.5 7.9 6.7 11.9 4.4 8 6.5 12c2.1 4.1 4.1 8.1 5.9 12.3a1.2 1.2 0 0 1 -.6 1.6 1.24 1.24 0 0 1 -1.5-.5z"/><path d="m113.478 256.755c1.8-4.2 3.8-8.3 5.9-12.3 2.1-4.1 4.3-8 6.5-12s4.5-7.9 6.7-11.9c2.3-3.9 4.7-7.8 7.1-11.7.1-.1.2-.2.4-.1.1.1.2.2.1.3-1.8 4.2-3.7 8.4-5.6 12.5s-3.9 8.2-5.9 12.3-4.1 8.1-6.2 12.1c-2.2 4-4.4 8-6.8 11.8a1.276 1.276 0 0 1 -1.7.4c-.6-.2-.7-.8-.5-1.4z"/></g></svg>