<svg height="208.027" viewBox="0 0 156.3 208.027" width="156.3" xmlns="http://www.w3.org/2000/svg"><path d="m78 71.327a3 3 0 0 1 -2.989-3.253c.4-4.706 4.176-46.317 14.331-57.923a30.133 30.133 0 0 1 42.334-2.682 30.033 30.033 0 0 1 2.673 42.343c-10.263 11.61-51.108 20.478-55.731 21.45a2.957 2.957 0 0 1 -.618.065zm33.857-65.294a23.963 23.963 0 0 0 -18.009 8.08c-6.774 7.742-10.963 35.993-12.47 50.387 14.102-3.263 41.622-10.91 48.473-18.659a23.938 23.938 0 0 0 -17.994-39.808z" fill="#222433"/><path d="m78.1 71.327a2.943 2.943 0 0 1 -.618-.065c-4.622-.972-45.454-9.837-55.725-21.443a29.856 29.856 0 0 1 2.677-42.359 30.126 30.126 0 0 1 42.313 2.68c10.166 11.617 13.945 53.228 14.342 57.934a3 3 0 0 1 -2.989 3.253zm-33.854-65.296a24.031 24.031 0 0 0 -15.871 5.953 23.854 23.854 0 0 0 -2.136 33.846l.008.01c6.853 7.749 34.372 15.397 48.475 18.66-1.507-14.4-5.7-42.65-12.48-50.4a23.949 23.949 0 0 0 -17.996-8.069z" fill="#222433"/><path d="m156.3 208.027h-96.9-59.4v-136.3h156.3z" fill="#5a38fd"/><path d="m59.1 71.727h38v136.3h-38z" fill="#82b1ff"/></svg>