<svg enable-background="new 0 0 160.998 196.001" height="197" viewBox="0 0 160.998 196.001" width="161" xmlns="http://www.w3.org/2000/svg"><path d="m76.397 110.546c4.102.674 12.771 1.498 22.381-2.419 15.766-6.427 21.902-20.66 23.107-23.631-4.811-.108-18.345.231-31.12 9.553-7.739 5.647-12.11 12.337-14.368 16.497z" fill="#1d0333"/><path d="m50.703 146.137c1.895-2.229 9.028-11.143 8.871-24.456-.171-14.553-8.928-23.792-10.788-25.67-1.5 3.756-3.249 9.243-3.913 16.056-.117 1.201-.495 5.468-.008 11.256.448 5.32 1.753 13.405 5.838 22.814z" fill="#1d0333"/><path d="m90.714 34.325c9.429 6.216 19.157 7.323 24.321 2.956 2.642-2.234 4.858-6.552 3.508-9.436-1.904-4.068-10.178-3.723-14.775-2.629-7.289 1.733-11.538 7.001-13.054 9.109z" fill="#f85572"/><path d="m106.868 40.901c-5.033 0-10.961-1.954-16.705-5.741-.228-.15-.384-.386-.433-.654s.013-.544.172-.765c2.028-2.819 6.496-7.801 13.634-9.498 5.22-1.241 13.762-1.419 15.913 3.178 1.54 3.291-.757 8.077-3.769 10.624-2.267 1.917-5.325 2.856-8.812 2.856zm-14.707-6.836c8.693 5.418 17.533 6.423 22.228 2.452 2.409-2.037 4.336-5.926 3.249-8.249-1.529-3.268-9.042-3.173-13.639-2.08-5.849 1.391-9.753 5.232-11.838 7.877z" fill="#1d0333"/><path d="m91.262 33.813c14.81-4.213 25.137-10.59 24.974-16.134-.107-3.628-2.452-5.924-2.452-5.924s-2.369-2.629-6.291-2.339c-7.01.518-13.309 10.372-16.231 24.397z" fill="#f85572"/><path d="m91.262 34.813c-.25 0-.494-.093-.681-.268-.256-.238-.369-.593-.298-.936 3.075-14.761 9.802-24.648 17.137-25.191 4.359-.323 6.998 2.545 7.107 2.667.064.06 2.591 2.579 2.708 6.564.138 4.705-6.541 11.675-25.7 17.126-.089.025-.181.038-.273.038zm16.838-24.42c-.174 0-.351.006-.532.02-6.067.448-11.982 9.198-14.964 21.964 13.542-4.097 22.77-10.037 22.634-14.669-.093-3.155-2.134-5.221-2.155-5.241-.116-.125-1.944-2.074-4.983-2.074z" fill="#1d0333"/><path d="m90.714 34.325c-.934-2.456-3.813-9.026-10.719-12.578-6.072-3.123-15.038-3.991-16.969-.581-1.44 2.542 1.332 6.922 3.403 9.142 7.754 8.313 22.59 4.479 24.285 4.017z" fill="#fff"/><path d="m80.977 36.623c-5.149 0-11.122-1.176-15.279-5.632-2.02-2.165-5.36-7.108-3.542-10.317 2.471-4.361 12.486-2.804 18.297.184 6.72 3.456 9.899 9.699 11.196 13.112.1.264.084.557-.044.809s-.356.437-.628.511c-1.346.367-5.335 1.333-10 1.333zm-12.079-16.643c-2.447 0-4.359.544-5.001 1.679-1.086 1.917 1.255 5.813 3.265 7.967 6.416 6.878 18.327 4.883 22.192 4.005-1.404-3.253-4.319-8.168-9.815-10.995-3.379-1.737-7.462-2.656-10.641-2.656z" fill="#1d0333"/><path d="m90.714 34.325c-.709-6.832-2.62-12.053-4.246-15.542-2.529-5.426-5.462-11.72-10.206-12.029-3.103-.202-6.779 2.169-7.606 5.049-2.362 8.228 18.569 20.508 22.058 22.522z" fill="#f85572"/><path d="m90.713 35.325c-.172 0-.345-.044-.5-.134-7.56-4.365-24.889-15.408-22.52-23.664.951-3.312 4.986-6.008 8.632-5.771 5.335.348 8.37 6.859 11.048 12.604 2.295 4.925 3.753 10.262 4.334 15.862.039.374-.135.738-.451.942-.164.107-.353.161-.543.161zm-14.836-27.584c-2.621 0-5.599 2.031-6.261 4.337-1.024 3.571 3.715 10.745 19.856 20.36-.671-4.653-1.983-9.096-3.911-13.232-2.443-5.242-5.212-11.183-9.365-11.454-.106-.007-.212-.011-.319-.011z" fill="#1d0333"/><path d="m90.714 34.325c1.485-2.433 15.122-25.126 8.513-31.563-2.628-2.559-8.07-2.173-11.154.149-5.721 4.308-5.811 17.146 2.641 31.414z" fill="#f85572"/><g fill="#1d0333"><path d="m90.713 35.325c-.002 0-.004 0-.007 0-.351-.002-.675-.188-.854-.49-8.061-13.608-9.085-27.676-2.382-32.723 3.333-2.51 9.367-3.073 12.453-.067 6.965 6.785-5.74 28.514-8.357 32.801-.181.298-.504.479-.853.479zm3.492-33.315c-2.008 0-4.125.641-5.53 1.699-6.18 4.653-3.837 17.889 2.06 28.634 5.436-9.251 12.417-24.363 7.794-28.865-1.049-1.021-2.649-1.468-4.324-1.468z"/><path d="m17.069 175.298c-.312 0-.62-.146-.815-.42-.32-.45-.216-1.074.234-1.395 28.811-20.525 48.375-41.415 59.811-63.863 11.002-21.598 15.266-45.504 13.416-75.233-.034-.551.385-1.026.936-1.06.545-.034 1.026.385 1.06.936 3.728 59.91-17.73 100.717-74.063 140.849-.175.126-.378.186-.579.186z"/><path d="m109.344 129.486c1.714-.392 8.447-1.723 15.503 2.053 7.713 4.128 10.211 11.361 10.697 12.874-2.419-.242-5.831-.831-9.648-2.367-.673-.271-3.053-1.253-6.005-3.118-2.713-1.715-6.663-4.654-10.547-9.442z"/></g><path d="m139.662 126.128c-3.175-6.001-3.275-11.885-.364-14.723 1.49-1.452 4.201-2.528 5.849-1.554 2.324 1.374 1.64 6.305.72 8.993-1.459 4.26-4.856 6.498-6.205 7.284z" fill="#fff"/><path d="m139.662 127.128c-.092 0-.185-.013-.275-.038-.262-.075-.481-.253-.609-.494-3.357-6.346-3.429-12.738-.178-15.906 1.843-1.796 4.988-2.922 7.055-1.699 3.053 1.805 2.092 7.446 1.157 10.177-1.47 4.296-4.795 6.746-6.647 7.825-.154.089-.328.135-.503.135zm3.986-16.652c-1.178 0-2.702.72-3.651 1.645-2.458 2.396-2.405 7.361.064 12.571 1.63-1.12 3.81-3.106 4.859-6.172.912-2.664 1.321-6.86-.282-7.808-.275-.163-.615-.236-.99-.236z" fill="#1d0333"/><path d="m140.17 125.301c3.376-8.618 7.788-14.429 11.096-14.011 2.165.273 3.403 1.809 3.403 1.809s1.436 1.569 1.036 3.899c-.715 4.164-6.975 7.364-15.535 8.303z" fill="#fff"/><path d="m140.169 126.301c-.309 0-.604-.143-.794-.392-.213-.278-.265-.647-.137-.973 2.919-7.45 7.639-15.207 12.153-14.638 2.535.32 3.995 2.098 4.056 2.173.032.031 1.721 1.915 1.243 4.696-.791 4.607-7.079 8.105-16.412 9.128-.036.004-.072.006-.109.006zm10.762-14.032c-2.17 0-5.861 3.972-9.188 11.819 7.271-1.1 12.404-3.932 12.976-7.259.307-1.792-.749-3.01-.794-3.061-.042-.049-1.071-1.27-2.785-1.486-.068-.009-.137-.013-.209-.013z" fill="#1d0333"/><path d="m139.831 125.599c1.416.7 5.181 2.803 6.907 7.14 1.518 3.813 1.519 9.228-.632 10.187-1.604.715-4.065-1.197-5.273-2.564-4.527-5.12-1.376-13.775-1.002-14.763z" fill="#fff"/><path d="m145.34 144.081c-1.981 0-4.145-1.799-5.257-3.058-4.776-5.403-1.826-14.092-1.187-15.779.1-.264.307-.473.569-.576s.557-.091.809.034c2.019.999 5.664 3.323 7.393 7.666 1.546 3.886 1.855 10.129-1.154 11.47-.377.169-.771.243-1.173.243zm-4.942-17.036c-.792 2.583-2.199 8.827 1.184 12.654 1.244 1.408 3.245 2.703 4.117 2.313 1.298-.578 1.595-5.173.11-8.904-1.229-3.087-3.624-5.002-5.411-6.063z" fill="#1d0333"/><path d="m139.831 125.599c4.047.819 7.06 2.264 9.054 3.438 3.101 1.826 6.697 3.945 6.608 6.802-.058 1.868-1.689 3.931-3.46 4.259-5.059.938-11.198-12.295-12.202-14.499z" fill="#fff"/><path d="m151.517 141.145c-4.943 0-9.97-9.366-12.595-15.132-.156-.342-.106-.742.127-1.037.234-.294.614-.432.981-.358 3.361.68 6.511 1.877 9.363 3.557 3.379 1.99 7.208 4.246 7.101 7.694-.074 2.368-2.073 4.803-4.277 5.211-.234.044-.467.065-.7.065zm-9.892-14.091c3.253 6.633 7.446 12.576 10.227 12.061 1.289-.239 2.598-1.877 2.643-3.307.07-2.264-3.36-4.285-6.116-5.908-2.091-1.232-4.355-2.185-6.754-2.846z" fill="#1d0333"/><path d="m139.831 125.599c1.541-.748 15.907-7.597 19.377-3.271 1.38 1.72.834 4.954-.733 6.665-2.908 3.175-10.594 2.487-18.644-3.394z" fill="#fff"/><path d="m153.267 131.901c-4.019 0-9.103-1.898-14.025-5.494-.283-.207-.438-.547-.406-.897.031-.349.244-.657.56-.81 3.884-1.885 16.845-7.671 20.593-2.997 1.794 2.237 1.031 5.994-.776 7.967-1.378 1.503-3.458 2.231-5.946 2.231zm-11.441-6.134c7.155 4.713 13.6 5.074 15.912 2.551 1.343-1.466 1.686-4.124.69-5.364-1.943-2.423-9.674-.332-16.602 2.813z" fill="#1d0333"/><path d="m30.222 165.386c-.299 0-.594-.133-.792-.388-.338-.437-.258-1.065.179-1.403 23.31-18.027 68.584-37.028 110.018-38.467.542-.02 1.014.413 1.034.965.019.552-.413 1.015-.965 1.034-41.01 1.424-85.807 20.22-108.863 38.05-.182.141-.397.209-.611.209z" fill="#1d0333"/><path d="m112.957 196.001c-.213 0-.428-.068-.61-.208-27.446-21.142-73.116-27.987-111.061-16.647-.529.158-1.086-.143-1.244-.672-.158-.529.143-1.086.672-1.244 38.521-11.513 84.929-4.531 112.854 16.979.438.337.519.965.182 1.402-.197.256-.494.39-.793.39z" fill="#1d0333"/></svg>