<svg enable-background="new 0 0 271.504 730.516" height="730.516" viewBox="0 0 271.504 730.516" width="271.504" xmlns="http://www.w3.org/2000/svg"><circle cx="136.059" cy="153.232" fill="#85cebe" r="39.811"/><path d="m136.059 198.043c-24.709 0-44.811-20.102-44.811-44.811s20.102-44.811 44.811-44.811 44.811 20.102 44.811 44.811-20.103 44.811-44.811 44.811zm0-79.622c-19.195 0-34.811 15.616-34.811 34.811s15.616 34.811 34.811 34.811 34.811-15.616 34.811-34.811-15.617-34.811-34.811-34.811z" fill="#393b49"/><path d="m140.031 81.01c15.363 26.027 6.718 59.581-19.309 74.945s-59.581 6.718-74.945-19.309-16.5-76.153 9.527-91.517 69.363 9.853 84.727 35.881z" fill="#e1719e"/><path d="m93.006 168.577c-5.001 0-10.033-.633-15.003-1.913-15.448-3.98-28.422-13.738-36.531-27.476-8.162-13.826-12.546-33.979-11.444-52.595 1.28-21.617 9.354-37.871 22.735-45.769 13.38-7.898 31.512-7.113 51.057 2.212 16.831 8.03 32.356 21.607 40.517 35.433 16.74 28.36 7.287 65.052-21.073 81.792-9.319 5.5-19.714 8.316-30.258 8.316zm-19.279-123.09c-6.011 0-11.411 1.309-15.881 3.948-10.273 6.063-16.774 19.822-17.836 37.749-.991 16.736 2.868 34.715 10.073 46.92 6.751 11.438 17.553 19.562 30.415 22.876s26.245 1.421 37.682-5.331c23.611-13.937 31.482-44.486 17.545-68.097-7.205-12.205-21.08-24.272-36.211-31.491-9.155-4.368-17.985-6.574-25.787-6.574z" fill="#393b49"/><path d="m130.464 81.01c-15.363 26.027-6.718 59.581 19.309 74.945s59.581 6.718 74.945-19.309 16.5-76.153-9.527-91.517-69.364 9.853-84.727 35.881z" fill="#e1719e"/><path d="m177.489 168.577c-10.544 0-20.938-2.816-30.257-8.317-13.738-8.109-23.497-21.083-27.477-36.532-3.98-15.448-1.706-31.522 6.403-45.26 8.161-13.826 23.686-27.403 40.517-35.433 19.545-9.325 37.677-10.11 51.057-2.212s21.454 24.153 22.735 45.769c1.103 18.615-3.282 38.768-11.444 52.595-8.109 13.738-21.083 23.496-36.531 27.476-4.969 1.28-10.003 1.914-15.003 1.914zm19.279-123.09c-7.802 0-16.631 2.206-25.787 6.574-15.131 7.219-29.007 19.286-36.211 31.491-6.751 11.438-8.645 24.82-5.331 37.682s11.438 23.663 22.876 30.415 24.821 8.645 37.682 5.331c12.862-3.314 23.664-11.438 30.415-22.876 13.844-23.454 15.875-70.717-7.763-84.669-4.47-2.639-9.871-3.948-15.881-3.948z" fill="#393b49"/><path d="m200.975 92.553c0 35.774-29.001 64.775-64.775 64.775s-64.775-29.001-64.775-64.775 29.001-87.553 64.775-87.553 64.775 51.779 64.775 87.553z" fill="#e1719e"/><path d="m136.2 162.328c-38.474 0-69.775-31.301-69.775-69.775 0-18.831 7.596-41.815 19.824-59.984 14.136-21.002 31.875-32.569 49.951-32.569s35.815 11.567 49.951 32.569c12.228 18.168 19.824 41.153 19.824 59.984 0 38.474-31.301 69.775-69.775 69.775zm0-152.328c-32.996 0-59.775 49.953-59.775 82.553 0 32.96 26.815 59.775 59.775 59.775s59.775-26.815 59.775-59.775c0-32.6-26.779-82.553-59.775-82.553z" fill="#393b49"/><path d="m136.202 730.516c-2.762.001-5-2.237-5.001-4.999l-.142-532.473c-.001-2.761 2.237-5.001 4.999-5.001 2.762-.001 5 2.237 5.001 4.999l.142 532.473c0 2.761-2.238 5-4.999 5.001z" fill="#393b49"/><path d="m32.157 365.427c28.166 22.504 74.902 10.887 74.902 10.887s1.015-48.147-27.152-70.651c-28.166-22.504-74.902-10.887-74.902-10.887s-1.086 48.155 27.152 70.651z" fill="#85cebe"/><path d="m79.443 384.353c-15.907 0-35.403-3.035-50.401-15.015-29.835-23.768-29.082-72.607-29.035-74.675l.086-3.818 3.707-.921c2.006-.499 49.474-11.94 79.229 11.833 29.754 23.773 29.073 72.596 29.03 74.663l-.081 3.824-3.712.923c-.996.247-13.172 3.186-28.823 3.186zm-69.359-85.519c.486 11.563 3.761 45.612 25.189 62.683l.005.004c21.368 17.072 55.291 12.797 66.697 10.731-.502-11.576-3.819-45.609-25.189-62.683-21.427-17.119-55.315-12.812-66.702-10.735z" fill="#393b49"/><path d="m116.559 369.309h10v37.016h-10z" fill="#393b49" transform="matrix(.6215 -.7834 .7834 .6215 -257.8157 242.0309)"/><path d="m239.347 461.466c-28.166 22.504-74.902 10.887-74.902 10.887s-1.015-48.147 27.152-70.651 74.902-10.887 74.902-10.887 1.086 48.154-27.152 70.651z" fill="#85cebe"/><g fill="#393b49"><path d="m192.062 480.391c-15.654 0-27.827-2.938-28.822-3.186l-3.712-.923-.081-3.824c-.043-2.067-.725-50.89 29.029-74.663s77.222-12.332 79.229-11.833l3.707.921.086 3.818c.047 2.067.799 50.901-29.03 74.671-14.996 11.982-34.498 15.019-50.406 15.019zm-22.537-12.101c11.396 2.065 45.329 6.346 66.701-10.731l.005-.004c21.423-17.067 24.702-51.105 25.189-62.677-11.396-2.065-45.33-6.346-66.702 10.731-21.425 17.117-24.705 51.114-25.193 62.681z"/><path d="m131.438 478.855h37.016v10h-37.016z" transform="matrix(.7834 -.6215 .6215 .7834 -268.2328 197.977)"/></g></svg>