<svg width="1200pt" height="1200pt" version="1.1" viewBox="0 0 1200 1200" xmlns="http://www.w3.org/2000/svg">
 <path d="m975 112.5h-750c-29.828 0.03125-58.422 11.895-79.512 32.988-21.094 21.09-32.957 49.684-32.988 79.512v750c0.03125 29.828 11.895 58.422 32.988 79.512 21.09 21.094 49.684 32.957 79.512 32.988h750c29.828-0.03125 58.422-11.895 79.512-32.988 21.094-21.09 32.957-49.684 32.988-79.512v-750c-0.03125-29.828-11.895-58.422-32.988-79.512-21.09-21.094-49.684-32.957-79.512-32.988zm37.5 862.5c-0.011719 9.9414-3.9688 19.473-10.996 26.504-7.0312 7.0273-16.562 10.984-26.504 10.996h-750c-9.9414-0.011719-19.473-3.9688-26.504-10.996-7.0273-7.0312-10.984-16.562-10.996-26.504v-750c0.011719-9.9414 3.9688-19.473 10.996-26.504 7.0312-7.0273 16.562-10.984 26.504-10.996h750c9.9414 0.011719 19.473 3.9688 26.504 10.996 7.0273 7.0312 10.984 16.562 10.996 26.504zm-225-375c0 9.9453-3.9492 19.484-10.984 26.516-7.0312 7.0352-16.57 10.984-26.516 10.984h-112.5v112.5c0 13.398-7.1484 25.777-18.75 32.477-11.602 6.6992-25.898 6.6992-37.5 0-11.602-6.6992-18.75-19.078-18.75-32.477v-112.5h-112.5c-13.398 0-25.777-7.1484-32.477-18.75-6.6992-11.602-6.6992-25.898 0-37.5 6.6992-11.602 19.078-18.75 32.477-18.75h112.5v-112.5c0-13.398 7.1484-25.777 18.75-32.477 11.602-6.6992 25.898-6.6992 37.5 0 11.602 6.6992 18.75 19.078 18.75 32.477v112.5h112.5c9.9453 0 19.484 3.9492 26.516 10.984 7.0352 7.0312 10.984 16.57 10.984 26.516z" fill="#B3C5EF"/>
</svg>