<svg width="1200pt" height="1200pt" version="1.1" viewBox="0 0 1200 1200" xmlns="http://www.w3.org/2000/svg">
 <g fill="#B3C5EF">
  <path d="m856.08 313.8c-62.09-55.543-140.56-89.391-223.57-96.43-83.012-7.0352-166.06 13.113-236.62 57.41-70.559 44.297-124.8 110.34-154.53 188.16-29.738 77.82-33.355 163.2-10.316 243.26 23.043 80.062 71.496 150.46 138.05 200.57 66.555 50.109 147.6 77.219 230.91 77.23h28.078c30.711-0.035156 60.148-12.254 81.855-33.973 21.707-21.719 33.91-51.164 33.93-81.871s-12.145-60.168-33.824-81.918l-56.281-56.281 0.003907 0.003907c-3.7109-3.7344-5.793-8.7891-5.7891-14.055 0-5.2656 2.0898-10.312 5.8047-14.043s8.7578-5.8398 14.023-5.8633h220.2c25.461 0 49.879-10.113 67.883-28.117 18.004-18.004 28.117-42.422 28.117-67.883-0.03125-54.012-11.438-107.41-33.477-156.73-22.039-49.309-54.219-93.426-94.445-129.47zm-188.28 286.2c-30.707 0.035156-60.148 12.254-81.855 33.973-21.707 21.719-33.91 51.164-33.93 81.871s12.145 60.168 33.824 81.918l56.281 56.281v-0.003907c3.7109 3.7344 5.793 8.7891 5.7891 14.055s-2.0938 10.312-5.8086 14.043c-3.7148 3.7305-8.7578 5.8398-14.023 5.8633h-28.078c-73.672 0.21875-144.62-27.801-198.27-78.297-53.645-50.496-85.895-119.63-90.121-193.18-4.2266-73.551 19.891-145.93 67.395-202.23 47.504-56.309 114.78-92.273 187.99-100.49 10.961-1.1992 21.977-1.8008 33-1.8008 70.91-0.28125 139.38 25.906 192 73.441 30.191 27 54.344 60.066 70.887 97.039 16.543 36.973 25.098 77.016 25.113 117.52z"/>
  <path d="m744 456c0 26.508-21.492 48-48 48s-48-21.492-48-48 21.492-48 48-48 48 21.492 48 48"/>
  <path d="m552 456c0 26.508-21.492 48-48 48s-48-21.492-48-48 21.492-48 48-48 48 21.492 48 48"/>
  <path d="m504 648c0 26.508-21.492 48-48 48s-48-21.492-48-48 21.492-48 48-48 48 21.492 48 48"/>
 </g>
</svg>