<svg xmlns="http://www.w3.org/2000/svg" width="1200pt" height="1200pt" version="1.1" viewBox="0 0 1200 1200">
 <g fill="#B3C5EF">
  <path d="m600 936c12.734 0.011719 24.949-5.0391 33.961-14.039l288-288c9-9.0117 14.051-21.227 14.039-33.961v-115.92l-451.92 451.92z"/>
  <path d="m936 312c0.011719-12.738-5.043-24.957-14.047-33.969-9.0039-9.0078-21.219-14.07-33.957-14.07-12.738 0.003906-24.953 5.0664-33.957 14.078l-576 576c-12.133 12.133-16.871 29.816-12.43 46.391 4.4414 16.574 17.387 29.52 33.961 33.961 16.574 4.4414 34.258-0.29688 46.391-12.43l576-576c9-9.0117 14.051-21.227 14.039-33.961z"/>
  <path d="m888 936c12.73 0 24.938-5.0586 33.941-14.059 9-9.0039 14.059-21.211 14.059-33.941v-115.92l-163.92 163.92z"/>
  <path d="m600 264c-12.734-0.011719-24.949 5.0391-33.961 14.039l-288 288c-9 9.0117-14.051 21.227-14.039 33.961v115.92l451.92-451.92z"/>
  <path d="m312 264c-12.73 0-24.938 5.0586-33.941 14.059-9 9.0039-14.059 21.211-14.059 33.941v115.92l163.92-163.92z"/>
 </g>
</svg>