<?xml version="1.0" encoding="UTF-8"?>
<svg width="1200pt" height="1200pt" version="1.1" viewBox="0 0 1200 1200" xmlns="http://www.w3.org/2000/svg">
 <path d="m775.88 527.57c102.8 47.57 174.12 151.65 174.12 272.43 0 165.68-134.14 300-299.91 300h-300.17c-55.188 0-99.922-44.605-99.922-99.75v-800.27c0-55.219 44.605-99.98 99.75-99.98h250.14c138.13 0 250.11 111.9 250.11 250 0 69.441-28.371 132.27-74.125 177.57zm-425.88-27.574h249.89c82.809 0 150.11-67.238 150.11-150 0-82.852-67.184-150-150.11-150h-249.89zm0 500h300.09c110.48 0 199.91-89.484 199.91-200 0-110.48-89.496-200-199.91-200h-300.09z" fill="#000"/>
</svg>