<svg width="1200pt" height="1200pt" version="1.1" viewBox="0 0 1200 1200" xmlns="http://www.w3.org/2000/svg">
 <g fill="#B3C5EF">
  <path d="m637.5 309.38c10.312 0 18.75-8.4375 18.75-18.75v-150c0-10.312-8.4375-18.75-18.75-18.75h-131.25c-10.312 0-18.75 8.4375-18.75 18.75v150c0 10.312 8.4375 18.75 18.75 18.75zm-112.5-150h93.75v112.5h-93.75z"/>
  <path d="m112.5 178.12h281.25c10.312 0 18.75-8.4375 18.75-18.75s-8.4375-18.75-18.75-18.75h-281.25c-10.312 0-18.75 8.4375-18.75 18.75s8.4375 18.75 18.75 18.75z"/>
  <path d="m112.5 290.62h281.25c10.312 0 18.75-8.4375 18.75-18.75s-8.4375-18.75-18.75-18.75h-281.25c-10.312 0-18.75 8.4375-18.75 18.75s8.4375 18.75 18.75 18.75z"/>
  <path d="m112.5 431.25h525c10.312 0 18.75-8.4375 18.75-18.75s-8.4375-18.75-18.75-18.75h-525c-10.312 0-18.75 8.4375-18.75 18.75s8.4375 18.75 18.75 18.75z"/>
  <path d="m112.5 543.75h525c10.312 0 18.75-8.4375 18.75-18.75s-8.4375-18.75-18.75-18.75h-525c-10.312 0-18.75 8.4375-18.75 18.75s8.4375 18.75 18.75 18.75z"/>
  <path d="m37.5 918.75h600l-37.5-37.5h-562.5v-843.75h675v670.31l7.5 7.5c0.9375-0.9375 0.9375-0.9375 1.875-0.9375 8.4375-7.5 17.812-13.125 29.062-17.812v-659.06c0-20.625-16.875-37.5-37.5-37.5h-675.94c-20.625 0-37.5 16.875-37.5 37.5v843.75c0 20.625 16.875 37.5 37.5 37.5z"/>
  <path d="m569.06 688.12c9.375-8.4375 20.625-15 32.812-18.75-12.188-24.375-38.438-40.312-65.625-40.312h-321.56c-41.25 0-74.062 32.812-74.062 74.062v39.375c0 41.25 32.812 74.062 74.062 74.062h320.62 2.8125c-6.5625-11.25-11.25-24.375-12.188-37.5h-311.25c-19.688 0-36.562-15.938-36.562-36.562v-39.375c0-19.688 15.938-36.562 36.562-36.562h320.62c15-0.9375 28.125 7.5 33.75 21.562z"/>
  <path d="m744.38 743.44-12.188 12.188c-3.75 3.75-7.5 8.4375-10.312 14.062l-54.375-54.375c-21.562-19.688-55.312-19.688-75.938 1.875l-12.188 12.188c-10.312 11.25-16.875 25.312-16.875 40.312 0 13.125 5.625 26.25 15 35.625l136.88 135.94-3.75 3.75c-10.312 10.312-16.875 25.312-16.875 40.312 0 13.125 4.6875 25.312 14.062 34.688l161.25 161.25c8.4375 8.4375 19.688 13.125 30.938 13.125l108.75 5.625h2.8125c13.125 0 25.312-5.625 34.688-15l141.56-141.56c14.062-14.062 12.188-35.625 10.312-45l-18.75-118.12c-1.875-10.312-6.5625-19.688-14.062-27.188l-182.81-182.81c-19.688-19.688-50.625-19.688-70.312-0.9375l-10.312 10.312c-2.8125 2.8125-4.6875 5.625-6.5625 8.4375-21.562-16.875-52.5-14.062-71.25 6.5625l-12.188 12.188c-5.625 5.625-10.312 13.125-13.125 20.625-16.875-5.625-34.688-0.9375-52.5 14.062-0.9375 0.9375-1.875 0.9375-1.875 1.875zm14.062 38.438 12.188-12.188c11.25-9.375 15-9.375 25.312 0l55.312 55.312c6.5625 6.5625 10.312 10.312 11.25 12.188l2.8125 2.8125c8.4375 6.5625 19.688 5.625 26.25-2.8125 6.5625-7.5 5.625-18.75-0.9375-25.312l-57.188-57.188c-1.875-1.875-2.8125-4.6875-2.8125-7.5 0-5.625 2.8125-10.312 6.5625-14.062l12.188-12.188c4.6875-6.5625 14.062-7.5 20.625-3.75l75 75c7.5 7.5 18.75 7.5 26.25 0s7.5-18.75 0-26.25l-42.188-42.188c-2.8125-2.8125-4.6875-6.5625-4.6875-10.312 0-2.8125 0.9375-4.6875 2.8125-6.5625l10.312-10.312c5.625-4.6875 13.125-3.75 17.812 0.9375l182.81 182.81c1.875 1.875 2.8125 3.75 3.75 6.5625l18.75 118.12c0.9375 3.75 0.9375 8.4375 0 12.188l-141.56 141.56c-1.875 2.8125-5.625 3.75-8.4375 3.75l-108.75-5.625c-2.8125 0-4.6875-0.9375-6.5625-2.8125l-162.19-161.25c-1.875-1.875-2.8125-4.6875-2.8125-7.5 0-4.6875 1.875-10.312 5.625-13.125l12.188-12.188c3.75-3.75 8.4375-5.625 13.125-5.625 3.75 0 6.5625 0.9375 9.375 3.75l84.375 84.375c7.5 7.5 18.75 7.5 26.25 0s7.5-18.75 0-26.25l-84.375-84.375c-14.062-13.125-34.688-17.812-53.438-11.25l-140.62-140.62c-2.8125-2.8125-3.75-5.625-3.75-9.375 0-4.6875 1.875-9.375 5.625-13.125l12.188-12.188c5.625-6.5625 15.938-7.5 22.5-1.875l150 150c7.5 7.5 18.75 7.5 26.25 0 6.5625-7.5 7.5-18.75 0-26.25l-62.812-61.875c-1.875-1.875-2.8125-3.75-2.8125-6.5625 2.8125-8.4375 4.6875-13.125 8.4375-16.875z"/>
 </g>
</svg>