<svg xmlns="http://www.w3.org/2000/svg" viewBox="0 0 16 16" enable-background="new 0 0 16 16" x="0px" y="0px"><g fill="#B3C5EF"><path d="M8 12c-.266 0-.522-.106-.71-.296l-3.375-3.407c-.389-.392-.386-1.025.006-1.414.392-.387 1.026-.386 1.414.007l2.574 2.597 6.302-8.101c.339-.435.967-.514 1.403-.176.436.339.515.968.175 1.403l-7 9c-.177.227-.442.367-.729.384l-.06.003zM14 16h-12c-1.103 0-2-.897-2-2v-12c0-1.103.897-2 2-2h9c.553 0 1 .448 1 1s-.447 1-1 1h-9v12h12v-6c0-.552.447-1 1-1s1 .448 1 1v6c0 1.103-.897 2-2 2z"></path></g></svg>