<svg xmlns="http://www.w3.org/2000/svg" width="1200pt" height="1200pt" version="1.1" viewBox="0 0 1200 1200">
<path d="m885.24 880.89c0 7.0078-5.6758 12.684-12.684 12.684h-552.17c-6.9844 0-12.684-5.6758-12.684-12.684v-552.16c0-6.9844 5.6992-12.684 12.684-12.684h380.02v-101.39h-380.02c-62.902 0-114.07 51.168-114.07 114.07v552.17c0 62.902 51.168 114.1 114.07 114.1h552.17c62.902 0 114.1-51.191 114.1-114.1v-364.8l-101.41 0.003906zm-460.25-395.2-66.023 76.945 210.32 180.47 424.38-470.18-75.301-67.922-358.08 396.76z" fill="#B3C5EF"/>
</svg>