<svg xmlns="http://www.w3.org/2000/svg" width="1200pt" height="1200pt" version="1.1" viewBox="0 0 1200 1200">
 <path d="m375.96 126.84h-31.922c-22.277 0-43.645 8.8516-59.395 24.602-15.754 15.754-24.605 37.121-24.605 59.398v12h-16.078c-35.008 0-68.586 13.906-93.34 38.66-24.754 24.758-38.66 58.332-38.66 93.34v586.32c0 35.008 13.906 68.582 38.66 93.34 24.754 24.754 58.332 38.66 93.34 38.66h712.08c35.008 0 68.586-13.906 93.34-38.66 24.754-24.758 38.66-58.332 38.66-93.34v-586.2c0-35.008-13.906-68.586-38.66-93.34s-58.332-38.66-93.34-38.66h-16.078v-12c0-22.277-8.8516-43.645-24.605-59.398-15.75-15.754-37.117-24.602-59.395-24.602h-31.922c-22.277 0-43.645 8.8477-59.395 24.602-15.754 15.754-24.605 37.121-24.605 59.398v12h-280.08v-12c0.03125-22.301-8.8047-43.695-24.562-59.477-15.754-15.777-37.141-24.645-59.438-24.645zm-44.039 84c0-6.6289 5.3711-12 12-12h32.039c3.1836 0 6.2344 1.2656 8.4844 3.5156s3.5156 5.3008 3.5156 8.4844v96c0 3.1836-1.2656 6.2344-3.5156 8.4844s-5.3008 3.5156-8.4844 3.5156h-31.922c-6.625 0-12-5.3711-12-12zm684 730.32c0 15.914-6.3242 31.176-17.574 42.426-11.254 11.254-26.516 17.574-42.426 17.574h-711.96c-15.914 0-31.176-6.3203-42.426-17.574-11.254-11.25-17.574-26.512-17.574-42.426v-404.88h832.08zm-204-730.32c0-6.6289 5.3711-12 12-12h32.039c3.1836 0 6.2344 1.2656 8.4844 3.5156s3.5156 5.3008 3.5156 8.4844v96c0 3.1836-1.2656 6.2344-3.5156 8.4844s-5.3008 3.5156-8.4844 3.5156h-31.922c-6.625 0-12-5.3711-12-12zm-72 84v12c0 22.277 8.8477 43.645 24.602 59.398 15.754 15.75 37.117 24.602 59.398 24.602h32.039c22.277 0 43.645-8.8516 59.395-24.602 15.754-15.754 24.605-37.121 24.605-59.398v-12h15.961c15.91 0 31.172 6.3203 42.426 17.574 11.25 11.25 17.574 26.512 17.574 42.426v109.2h-831.96v-109.2c0-15.914 6.3203-31.176 17.574-42.426 11.25-11.254 26.512-17.574 42.426-17.574h15.961v12c0 22.277 8.8477 43.645 24.602 59.398 15.754 15.75 37.117 24.602 59.398 24.602h32.039c22.277 0 43.645-8.8516 59.395-24.602 15.754-15.754 24.605-37.121 24.605-59.398v-12z" fill="#B3C5EF"/>
</svg>