<svg width="1200pt" height="1200pt" version="1.1" viewBox="0 0 1200 1200" xmlns="http://www.w3.org/2000/svg">
 <g fill="#B3C5EF">
  <path d="m1087.2 396h-973.2c-33.602 0-60 26.398-60 60v300c0 33.602 26.398 60 60 60h921.6c61.199 0 111.6-49.199 111.6-111.6l-0.003906-248.4c0-33.602-26.398-60-60-60zm-410.4 370.8h-562.8c-6 0-12-6-12-12v-298.8c0-6 6-12 12-12h562.8zm422.4-62.402c0 34.801-28.801 63.602-63.602 63.602h-310.8v-324h362.4c7.1992 0 12 6 12 12z"/>
  <path d="m1011.6 548.4c-3.6016-3.6016-8.3984-4.8008-13.199-4.8008-4.8008 0-9.6016 2.3984-13.199 4.8008l-69.602 69.602-69.602-69.602c-3.6016-3.6016-8.3984-4.8008-13.199-4.8008s-9.6016 2.3984-13.199 4.8008l-10.801 10.801c-3.6016 3.6016-6 8.3984-6 13.199 0 4.8008 2.3984 9.6016 6 13.199l93.602 93.602c3.6016 3.6016 8.3984 6 13.199 6 4.8008 0 9.6016-2.3984 13.199-6l93.602-93.602c3.6016-3.6016 4.8008-8.3984 4.8008-13.199 0-4.8008-2.3984-9.6016-4.8008-13.199z"/>
 </g>
</svg>