<svg xmlns="http://www.w3.org/2000/svg" width="1200pt" height="1200pt" version="1.1" viewBox="0 0 1200 1200">
 <g fill="#B3C5EF">
  <path d="m408 888h384c25.461 0 49.879-10.113 67.883-28.117 18.004-18.004 28.117-42.422 28.117-67.883v-384c0-25.461-10.113-49.879-28.117-67.883-18.004-18.004-42.422-28.117-67.883-28.117h-384c-25.461 0-49.879 10.113-67.883 28.117-18.004 18.004-28.117 42.422-28.117 67.883v384c0 25.461 10.113 49.879 28.117 67.883 18.004 18.004 42.422 28.117 67.883 28.117zm384-48h-384c-12.73 0-24.938-5.0586-33.941-14.059-9-9.0039-14.059-21.211-14.059-33.941v-62.039l120-120 127.08 126.96c4.5 4.4688 10.582 6.9766 16.922 6.9766s12.422-2.5078 16.922-6.9766l79.078-78.961 120 120v14.039c0 12.73-5.0586 24.938-14.059 33.941-9.0039 9-21.211 14.059-33.941 14.059zm-384-480h384c12.73 0 24.938 5.0586 33.941 14.059 9 9.0039 14.059 21.211 14.059 33.941v302.04l-103.08-102.96c-4.5-4.4688-10.582-6.9766-16.922-6.9766s-12.422 2.5078-16.922 6.9766l-79.078 78.961-127.08-126.96c-4.5-4.4688-10.582-6.9766-16.922-6.9766s-12.422 2.5078-16.922 6.9766l-103.08 102.96v-254.04c0-12.73 5.0586-24.938 14.059-33.941 9.0039-9 21.211-14.059 33.941-14.059z"/>
  <path d="m636 576c22.277 0 43.645-8.8516 59.398-24.602 15.75-15.754 24.602-37.121 24.602-59.398s-8.8516-43.645-24.602-59.398c-15.754-15.75-37.121-24.602-59.398-24.602s-43.645 8.8516-59.398 24.602c-15.75 15.754-24.602 37.121-24.602 59.398s8.8516 43.645 24.602 59.398c15.754 15.75 37.121 24.602 59.398 24.602zm0-120c9.5469 0 18.703 3.793 25.457 10.543 6.75 6.7539 10.543 15.91 10.543 25.457s-3.793 18.703-10.543 25.457c-6.7539 6.75-15.91 10.543-25.457 10.543s-18.703-3.793-25.457-10.543c-6.75-6.7539-10.543-15.91-10.543-25.457s3.793-18.703 10.543-25.457c6.7539-6.75 15.91-10.543 25.457-10.543z"/>
 </g>
</svg>