<?xml version="1.0" encoding="UTF-8"?>
<svg width="1200pt" height="1200pt" version="1.1" viewBox="0 0 1200 1200" xmlns="http://www.w3.org/2000/svg">
 <path d="m730 200h219.88c27.699 0 50.125-22.387 50.125-50 0-27.809-22.441-50-50.125-50h-499.75c-27.699 0-50.125 22.387-50.125 50 0 27.809 22.441 50 50.125 50h179.88l-160 800h-219.88c-27.699 0-50.125 22.387-50.125 50 0 27.809 22.441 50 50.125 50h499.75c27.699 0 50.125-22.387 50.125-50 0-27.809-22.441-50-50.125-50h-179.88z" fill="#000" fill-rule="evenodd"/>
</svg>