<svg xmlns="http://www.w3.org/2000/svg" width="1200pt" height="1200pt" version="1.1" viewBox="0 0 1200 1200">
 <path d="m951 259.26c-93.758-93.758-218.41-145.39-351-145.39-22.094 0-43.945 1.4648-65.496 4.2852 21.91 23.652 38.965 50.699 50.629 79.934 4.9336-0.17969 9.8867-0.27734 14.867-0.27734 12.18 0 24.227 0.5625 36.145 1.5977 42.59 65.93 74.207 137.58 94.152 212.58h-154.52c-10.992 24.059-26.746 52.559-49.234 83.941h221.02c5.2422 35.891 7.9062 72.324 7.9062 109.05 0 40.129-3.1914 79.859-9.4219 118.92l-296.15-0.003906c-5.1719-35.676-7.8008-71.867-7.8008-108.36 0-7.9336 0.15625-15.828 0.40625-23.723-16.754 16.008-35.219 32.293-55.68 48.719-8.3398 6.6953-17.867 11.148-27.781 13.379 1.0781 23.484 3.1211 46.824 6.1328 69.984h-161.7c-10.367-36.121-15.926-74.242-15.926-113.64 0-24.863 2.2188-49.211 6.457-72.875-27.574-32.375-48.086-62.676-63.312-89.52-17.797 51.551-27.086 106.26-27.086 162.39 0 132.59 51.637 257.24 145.39 351 93.762 93.77 218.41 145.41 351 145.41s257.24-51.637 351-145.39c93.758-93.758 145.39-218.41 145.39-351 0-132.59-51.621-257.26-145.39-351.01zm-712.97 548.59h142.49c15.266 64.523 38.195 127.02 68.496 186.25-90.145-35.582-164.82-102.04-210.98-186.25zm509.89-582.59c91.246 35.184 166.95 101.89 213.65 186.73h-144.71c-15.359-64.715-38.449-127.36-68.938-186.73zm-119.12 796.44c-9.5156 0.66016-19.117 1.0195-28.801 1.0195-13.066 0-25.992-0.63672-38.746-1.8359-42.637-66.059-74.281-137.88-94.188-213.04h260.58c-21.242 75.637-54.422 147.71-98.844 213.85zm112.2-23.809c32.34-60.266 56.977-124.02 73.488-190.04h147.47c-47.844 87.312-126.36 155.52-220.96 190.04zm89.941-273.98c5.5938-39.145 8.4609-78.852 8.4609-118.92 0-36.672-2.4102-73.094-7.1172-109.05h164.04c10.488 36.324 16.141 74.676 16.141 114.34 0 39.395-5.5664 77.531-15.926 113.64zm-690.09-393.84s0.33594 2.1602 1.2969 6.1914c3.1094 13.754 7.6328 26.965 13.414 39.469 20.734 49.031 69.371 132.01 180.66 221.4 111.29-89.387 159.93-172.37 180.66-221.4 5.7852-12.504 10.32-25.715 13.414-39.469 0.96094-4.0312 1.2969-6.1914 1.2969-6.1914 2.3516-12.227 3.6016-24.852 3.6016-37.777 0-109.88-89.074-198.97-198.97-198.97-109.89 0-198.97 89.074-198.97 198.97 0.003906 12.926 1.25 25.551 3.6016 37.777zm195.37-154.98c64.727 0 117.2 52.477 117.2 117.2s-52.477 117.2-117.2 117.2c-64.727 0-117.2-52.477-117.2-117.2-0.011719-64.73 52.465-117.2 117.2-117.2z" fill="#B3C5EF"/>
</svg>