<svg xmlns="http://www.w3.org/2000/svg" width="1200pt" height="1200pt" version="1.1" viewBox="0 0 1200 1200">
 <g fill="#B3C5EF">
  <path d="m984 377.76c3.5977-43.887-12.27-87.133-43.395-118.28-31.121-31.145-74.359-47.043-118.25-43.48-36.902 3.4805-71.359 19.984-97.199 46.559l-246.84 247.2c-22.371 22.242-40.105 48.703-52.176 77.852-12.074 29.145-18.238 60.398-18.145 91.945v40.441c0 19.094 7.5859 37.41 21.09 50.91 13.5 13.504 31.816 21.09 50.91 21.09h40.441c63.645-0.011719 124.68-25.309 169.68-70.32l246.84-246.84c26.727-25.734 43.402-60.156 47.039-97.078zm-111.24 26.16-250.44 249.84c-26.949 27.129-63.641 42.344-101.88 42.238h-16.441v-16.441c-0.13672-38.223 15.031-74.91 42.121-101.88l249.96-249.96c9.875-11.035 23.859-17.523 38.66-17.938 14.805-0.41016 29.125 5.2891 39.598 15.762 10.473 10.473 16.172 24.793 15.762 39.598-0.41406 14.805-6.8984 28.785-17.938 38.66z"/>
  <path d="m312 468v-48c0-12.73 5.0586-24.938 14.059-33.941 9.0039-9 21.211-14.059 33.941-14.059h45.961c12.219 0.24219 24.098-4.0508 33.336-12.051 9.2422-8 15.191-19.141 16.703-31.27 1.3242-13.52-3.1406-26.969-12.289-37.008-9.1523-10.043-22.125-15.738-35.711-15.672h-48c-38.191 0-74.816 15.172-101.82 42.176-27.004 27.008-42.176 63.633-42.176 101.82v45.961c-0.24219 12.219 4.0508 24.098 12.051 33.336 8 9.2422 19.141 15.191 31.27 16.703 13.52 1.3242 26.969-3.1406 37.008-12.289 10.043-9.1523 15.738-22.125 15.672-35.711z"/>
  <path d="m216 840c0 38.191 15.172 74.816 42.176 101.82 27.008 27.004 63.633 42.176 101.82 42.176h48c13.586 0.066406 26.559-5.6289 35.711-15.672 9.1484-10.039 13.613-23.488 12.289-37.008-1.5117-12.129-7.4609-23.27-16.703-31.27-9.2383-8-21.117-12.293-33.336-12.051h-45.961c-12.73 0-24.938-5.0586-33.941-14.059-9-9.0039-14.059-21.211-14.059-33.941v-45.961c0.24219-12.219-4.0508-24.098-12.051-33.336-8-9.2422-19.141-15.191-31.27-16.703-13.52-1.3242-26.969 3.1406-37.008 12.289-10.043 9.1523-15.738 22.125-15.672 35.711z"/>
  <path d="m828 792v48c0 12.73-5.0586 24.938-14.059 33.941-9.0039 9-21.211 14.059-33.941 14.059h-45.961c-12.219-0.24219-24.098 4.0508-33.336 12.051-9.2422 8-15.191 19.141-16.703 31.27-1.3242 13.52 3.1406 26.969 12.289 37.008 9.1523 10.043 22.125 15.738 35.711 15.672h48c38.191 0 74.816-15.172 101.82-42.176 27.004-27.008 42.176-63.633 42.176-101.82v-45.961c0.24219-12.219-4.0508-24.098-12.051-33.336-8-9.2422-19.141-15.191-31.27-16.703-13.52-1.3242-26.969 3.1406-37.008 12.289-10.043 9.1523-15.738 22.125-15.672 35.711z"/>
 </g>
</svg>