<svg xmlns="http://www.w3.org/2000/svg" width="1200pt" height="1200pt" version="1.1" viewBox="0 0 1200 1200">
 <g fill="#B3C5EF">
  <path d="m864 252h-108v72h108c3.1836 0 6.2344 1.2656 8.4844 3.5156s3.5156 5.3008 3.5156 8.4844v108h72v-108c0-22.277-8.8516-43.645-24.602-59.398-15.754-15.75-37.121-24.602-59.398-24.602z"/>
  <path d="m876 864c0 3.1836-1.2656 6.2344-3.5156 8.4844s-5.3008 3.5156-8.4844 3.5156h-108v72h108c22.277 0 43.645-8.8516 59.398-24.602 15.75-15.754 24.602-37.121 24.602-59.398v-108h-72z"/>
  <path d="m336 948h108v-72h-108c-6.6289 0-12-5.3711-12-12v-108h-72v108c0 22.277 8.8516 43.645 24.602 59.398 15.754 15.75 37.121 24.602 59.398 24.602z"/>
  <path d="m324 336c0-6.6289 5.3711-12 12-12h108v-72h-108c-22.277 0-43.645 8.8516-59.398 24.602-15.75 15.754-24.602 37.121-24.602 59.398v108h72z"/>
  <path d="m756 444h-312v72h120v264h72v-264h120z"/>
 </g>
</svg>