<svg xmlns="http://www.w3.org/2000/svg" width="1200pt" height="1200pt" version="1.1" viewBox="0 0 1200 1200">
 <g fill="#B3C5EF">
  <path d="m948 696v-192c0-22.277-8.8516-43.645-24.602-59.398-15.754-15.75-37.121-24.602-59.398-24.602h-300v72h300c3.1836 0 6.2344 1.2656 8.4844 3.5156s3.5156 5.3008 3.5156 8.4844v192c0 3.1836-1.2656 6.2344-3.5156 8.4844s-5.3008 3.5156-8.4844 3.5156h-300v72h300c22.277 0 43.645-8.8516 59.398-24.602 15.75-15.754 24.602-37.121 24.602-59.398z"/>
  <path d="m444 906.36c24.898 26.512 59.629 41.578 96 41.641h36v-72h-36c-15.914 0-31.176-6.3203-42.426-17.574-11.254-11.25-17.574-26.512-17.574-42.426v-432c0-15.914 6.3203-31.176 17.574-42.426 11.25-11.254 26.512-17.574 42.426-17.574h36v-72h-36c-36.371 0.0625-71.102 15.129-96 41.641-24.898-26.512-59.629-41.578-96-41.641h-36v72h36c15.914 0 31.176 6.3203 42.426 17.574 11.254 11.25 17.574 26.512 17.574 42.426v432c0 15.914-6.3203 31.176-17.574 42.426-11.25 11.254-26.512 17.574-42.426 17.574h-36v72h36c36.371-0.0625 71.102-15.129 96-41.641z"/>
  <path d="m252 408h72v384h-72z"/>
 </g>
</svg>