<svg xmlns="http://www.w3.org/2000/svg" xmlns:xlink="http://www.w3.org/1999/xlink" version="1.1" x="0px" y="0px" viewBox="0 0 512 512" enable-background="new 0 0 512 512" xml:space="preserve" fill="#B3C5EF"><g><path d="M473,80H39c-12.682,0-23,10.318-23,23v306c0,12.682,10.318,23,23,23h434c12.682,0,23-10.318,23-23V103   C496,90.318,485.682,80,473,80z M416,96h16v32h-16V96z M336,96h64v32h-64V96z M304,96h16v32h-16V96z M224,96h64v32h-64V96z    M368,256c0,61.757-50.243,112-112,112s-112-50.243-112-112s50.243-112,112-112S368,194.243,368,256z M192,96h16v32h-16V96z    M112,96h64v32h-64V96z M80,96h16v32H80V96z M32,103c0-3.86,3.14-7,7-7h25v32H32V103z M32,144h162.094   c-8.135,4.514-15.728,9.888-22.658,16H32V144z M32,176h124.159C138.552,197.93,128,225.754,128,256s10.552,58.07,28.159,80H32V176z    M32,352h139.436c6.93,6.112,14.523,11.486,22.658,16H32V352z M64,416H39c-3.86,0-7-3.14-7-7v-25h32V416z M96,416H80v-32h16V416z    M176,416h-64v-32h64V416z M208,416h-16v-32h16V416z M288,416h-64v-32h64V416z M320,416h-16v-32h16V416z M400,416h-64v-32h64V416z    M432,416h-16v-32h16V416z M480,409c0,3.86-3.14,7-7,7h-25v-32h32V409z M480,368H317.906c8.135-4.514,15.728-9.888,22.658-16H480   V368z M480,336H355.841C373.448,314.07,384,286.246,384,256s-10.552-58.07-28.159-80H480V336z M480,160H340.564   c-6.93-6.112-14.523-11.486-22.658-16H480V160z M480,128h-32V96h25c3.86,0,7,3.14,7,7V128z"></path><path d="M323.969,249.054l-112-64c-2.477-1.415-5.518-1.405-7.985,0.026C201.518,186.512,200,189.148,200,192v128   c0,2.852,1.518,5.488,3.984,6.919c1.241,0.72,2.628,1.081,4.016,1.081c1.37,0,2.739-0.351,3.969-1.054l112-64   c2.493-1.424,4.031-4.075,4.031-6.946S326.462,250.479,323.969,249.054z M216,306.214V205.786L303.875,256L216,306.214z"></path></g></svg>